<?xml version="1.0" standalone="no"?><svg xmlns:xlink="http://www.w3.org/1999/xlink" xmlns="http://www.w3.org/2000/svg" viewBox="0 0 2000 1000.0000000000001" preserveAspectRatio="xMaxYMax slice"><g transform="scale(1.3245033112582782)"><rect x="0" y="0" width="1510" height="755" fill="#6F4C5B"/><rect x="0" y="0" width="251.67" height="251.67" fill="#DEBA9D"/><path d="M 0 0 A 251.67 251.67 0 0 1  251.67 251.67 L 0 0 A 251.67 251.67 0 0 0 251.67 251.67" fill="#9E7777"/><rect x="251.67" y="0" width="251.67" height="251.67" fill="#6F4C5B"/><path d="M 251.67 0 A 251.67 251.67 0 0 1 503.34 251.67 L 251.67 251.67" fill="#9E7777"/><rect x="503.33" y="0" width="251.67" height="251.67" fill="#6F4C5B"/><path d="M 503.33 251.67 A 251.67 251.67 0 0 1  755 0 L 503.33 251.67 A 251.67 251.67 0 0 0 755 0" fill="#DEBA9D"/><rect x="755" y="0" width="251.67" height="251.67" fill="#6F4C5B"/><path d="M 755 251.67 A 251.67 251.67 0 0 0 1006.67 0 L 755 0" fill="#9E7777"/><rect x="1006.67" y="0" width="251.67" height="251.67" fill="#6F4C5B"/><path d="M 1006.67 0 A 251.67 251.67 0 0 1 1258.34 251.67 L 1006.67 251.67" fill="#6F4C5B"/><rect x="1258.33" y="0" width="251.67" height="251.67" fill="#6F4C5B"/><path d="M 1258.33 251.67 A 251.67 251.67 0 0 1  1510 0 L 1258.33 251.67 A 251.67 251.67 0 0 0 1510 0" fill="#9E7777"/><rect x="0" y="251.67" width="251.67" height="251.67" fill="#DEBA9D"/><path d="M 0 503.34 A 251.67 251.67 0 0 1  251.67 251.67 L 0 503.34 A 251.67 251.67 0 0 0 251.67 251.67" fill="#9E7777"/><rect x="251.67" y="251.67" width="251.67" height="251.67" fill="#DEBA9D"/><path d="M 251.67 503.34 A 251.67 251.67 0 0 1  503.34 251.67 L 503.34 503.34" fill="#9E7777"/><rect x="503.33" y="251.67" width="251.67" height="251.67" fill="#6F4C5B"/><path d="M 503.33 251.67 A 251.67 251.67 0 0 1  755 503.34 L 503.33 251.67 A 251.67 251.67 0 0 0 755 503.34" fill="#9E7777"/><rect x="755" y="251.67" width="251.67" height="251.67" fill="#6F4C5B"/><path d="M 755 251.67 A 251.67 251.67 0 0 1  1006.67 503.34 L 755 251.67 A 251.67 251.67 0 0 0 1006.67 503.34" fill="#6F4C5B"/><rect x="1006.67" y="251.67" width="251.67" height="251.67" fill="#6F4C5B"/><path d="M 1006.67 251.67 A 251.67 251.67 0 0 1  1258.34 503.34 L 1006.67 251.67 A 251.67 251.67 0 0 0 1258.34 503.34" fill="#DEBA9D"/><rect x="1258.33" y="251.67" width="251.67" height="251.67" fill="#DEBA9D"/><path d="M 1258.33 503.34 A 251.67 251.67 0 0 1  1510 251.67 L 1258.33 503.34 A 251.67 251.67 0 0 0 1510 251.67" fill="#9E7777"/><rect x="0" y="503.33" width="251.67" height="251.67" fill="#6F4C5B"/><path d="M 0 755 A 251.67 251.67 0 0 1  251.67 503.33 L 0 755 A 251.67 251.67 0 0 0 251.67 503.33" fill="#9E7777"/><rect x="251.67" y="503.33" width="251.67" height="251.67" fill="#6F4C5B"/><path d="M 251.67 503.33 A 251.67 251.67 0 0 0 503.34 755 L 503.34 503.33" fill="#9E7777"/><rect x="503.33" y="503.33" width="251.67" height="251.67" fill="#9E7777"/><path d="M 503.33 503.33 A 251.67 251.67 0 0 1  755 755 L 503.33 503.33 A 251.67 251.67 0 0 0 755 755" fill="#6F4C5B"/><rect x="755" y="503.33" width="251.67" height="251.67" fill="#DEBA9D"/><path d="M 755 503.33 A 251.67 251.67 0 0 1  1006.67 755 L 755 503.33 A 251.67 251.67 0 0 0 1006.67 755" fill="#6F4C5B"/><rect x="1006.67" y="503.33" width="251.67" height="251.67" fill="#9E7777"/><path d="M 1006.67 755 A 251.67 251.67 0 0 1  1258.34 503.33 L 1006.67 755 A 251.67 251.67 0 0 0 1258.34 503.33" fill="#DEBA9D"/><rect x="1258.33" y="503.33" width="251.67" height="251.67" fill="#9E7777"/><path d="M 1258.33 755 A 251.67 251.67 0 0 0 1510 503.33 L 1258.33 503.33" fill="#6F4C5B"/></g></svg>