<?xml version="1.0" standalone="no"?><svg xmlns:xlink="http://www.w3.org/1999/xlink" xmlns="http://www.w3.org/2000/svg" viewBox="0 0 1000 500.00000000000006" preserveAspectRatio="xMaxYMax slice"><g transform="scale(0.6622516556291391)"><rect x="0" y="0" width="1510" height="755" fill="#515E63"/><path d="M 0 188.75 A 188.75 188.75 0 0 0 188.75 0 L 0 0" fill="#C9D8B6"/><path d="M 188.75 0 A 188.75 188.75 0 0 0 377.5 188.75 L 377.5 0" fill="#57837B"/><path d="M 377.5 0 A 188.75 188.75 0 0 1  566.25 188.75 L 377.5 0 A 188.75 188.75 0 0 0 566.25 188.75" fill="#A3A847"/><path d="M 566.25 188.75 A 188.75 188.75 0 0 1  755 0 L 566.25 188.75 A 188.75 188.75 0 0 0 755 0" fill="#C9D8B6"/><path d="M 755 0 A 188.75 188.75 0 0 1  943.75 188.75 L 755 0 A 188.75 188.75 0 0 0 943.75 188.75" fill="#57837B"/><path d="M 943.75 188.75 A 188.75 188.75 0 0 0 1132.5 0 L 943.75 0" fill="#57837B"/><path d="M 1132.5 0 A 188.75 188.75 0 0 1  1321.25 188.75 L 1132.5 0 A 188.75 188.75 0 0 0 1321.25 188.75" fill="#515E63"/><path d="M 1321.25 0 A 188.75 188.75 0 0 1  1510 188.75 L 1321.25 0 A 188.75 188.75 0 0 0 1510 188.75" fill="#515E63"/><path d="M 0 188.75 A 188.75 188.75 0 0 1  188.75 377.5 L 0 188.75 A 188.75 188.75 0 0 0 188.75 377.5" fill="#A3A847"/><path d="M 188.75 188.75 A 188.75 188.75 0 0 1  377.5 377.5 L 188.75 188.75 A 188.75 188.75 0 0 0 377.5 377.5" fill="#515E63"/><path d="M 377.5 377.5 A 188.75 188.75 0 0 1  566.25 188.75 L 566.25 377.5" fill="#C9D8B6"/><path d="M 566.25 188.75 A 188.75 188.75 0 0 1  755 377.5 L 566.25 188.75 A 188.75 188.75 0 0 0 755 377.5" fill="#57837B"/><path d="M 755 188.75 A 188.75 188.75 0 0 1  943.75 377.5 L 755 188.75 A 188.75 188.75 0 0 0 943.75 377.5" fill="#57837B"/><path d="M 943.75 188.75 A 188.75 188.75 0 0 1 1132.5 377.5 L 943.75 377.5" fill="#515E63"/><path d="M 1132.5 377.5 A 188.75 188.75 0 0 1  1321.25 188.75 L 1132.5 377.5 A 188.75 188.75 0 0 0 1321.25 188.75" fill="#A3A847"/><path d="M 1321.25 377.5 A 188.75 188.75 0 0 0 1510 188.75 L 1321.25 188.75" fill="#57837B"/><path d="M 0 377.5 A 188.75 188.75 0 0 1  188.75 566.25 L 0 377.5 A 188.75 188.75 0 0 0 188.75 566.25" fill="#A3A847"/><path d="M 188.75 566.25 A 188.75 188.75 0 0 1  377.5 377.5 L 377.5 566.25" fill="#C9D8B6"/><path d="M 377.5 566.25 A 188.75 188.75 0 0 0 566.25 377.5 L 377.5 377.5" fill="#515E63"/><path d="M 566.25 566.25 A 188.75 188.75 0 0 1  755 377.5 L 755 566.25" fill="#515E63"/><path d="M 755 566.25 A 188.75 188.75 0 0 0 943.75 377.5 L 755 377.5" fill="#A3A847"/><path d="M 943.75 377.5 A 188.75 188.75 0 0 1  1132.5 566.25 L 943.75 377.5 A 188.75 188.75 0 0 0 1132.5 566.25" fill="#57837B"/><path d="M 1132.5 566.25 A 188.75 188.75 0 0 1  1321.25 377.5 L 1321.25 566.25" fill="#57837B"/><path d="M 1321.25 566.25 A 188.75 188.75 0 0 1  1510 377.5 L 1321.25 566.25 A 188.75 188.75 0 0 0 1510 377.5" fill="#C9D8B6"/><path d="M 0 566.25 A 188.75 188.75 0 0 1  188.75 755 L 0 566.25 A 188.75 188.75 0 0 0 188.75 755" fill="#A3A847"/><path d="M 188.75 566.25 A 188.75 188.75 0 0 0 377.5 755 L 377.5 566.25" fill="#C9D8B6"/><path d="M 377.5 566.25 A 188.75 188.75 0 0 1  566.25 755 L 377.5 566.25 A 188.75 188.75 0 0 0 566.25 755" fill="#C9D8B6"/><path d="M 566.25 755 A 188.75 188.75 0 0 1  755 566.25 L 566.25 755 A 188.75 188.75 0 0 0 755 566.25" fill="#A3A847"/><path d="M 755 755 A 188.75 188.75 0 0 0 943.75 566.25 L 755 566.25" fill="#57837B"/><path d="M 943.75 566.25 A 188.75 188.75 0 0 0 1132.5 755 L 1132.5 566.25" fill="#C9D8B6"/><path d="M 1132.5 755 A 188.75 188.75 0 0 1  1321.25 566.25 L 1132.5 755 A 188.75 188.75 0 0 0 1321.25 566.25" fill="#515E63"/><path d="M 1321.25 566.25 A 188.75 188.75 0 0 1  1510 755 L 1321.25 566.25 A 188.75 188.75 0 0 0 1510 755" fill="#C9D8B6"/></g></svg>