<?xml version="1.0" standalone="no"?><svg xmlns:xlink="http://www.w3.org/1999/xlink" xmlns="http://www.w3.org/2000/svg" viewBox="0 0 1000 999.9999999999999" preserveAspectRatio="xMaxYMax slice"><g transform="scale(1.2422360248447204)"><rect x="0" y="0" width="805" height="805" fill="#6F4C5B"/><rect x="0" y="0" width="402.5" height="402.5" fill="#6F4C5B"/><rect x="0" y="0" width="201.25" height="201.25" fill="#9E7777"/><path d="M 0 201.25 A 201.25 201.25 0 0 1  201.25 0 L 0 201.25 A 201.25 201.25 0 0 0 201.25 0" fill="#DEBA9D"/><rect x="201.25" y="0" width="201.25" height="201.25" fill="#9E7777"/><path d="M 201.25 201.25 A 201.25 201.25 0 0 1  402.5 0 L 201.25 201.25 A 201.25 201.25 0 0 0 402.5 0" fill="#6F4C5B"/><rect x="0" y="201.25" width="201.25" height="201.25" fill="#9E7777"/><path d="M 0 402.5 A 201.25 201.25 0 0 1  201.25 201.25 L 0 402.5 A 201.25 201.25 0 0 0 201.25 201.25" fill="#DEBA9D"/><rect x="201.25" y="201.25" width="201.25" height="201.25" fill="#DEBA9D"/><path d="M 201.25 201.25 A 201.25 201.25 0 0 1 402.5 402.5 L 201.25 402.5" fill="#6F4C5B"/><rect x="402.5" y="0" width="402.5" height="402.5" fill="#DEBA9D"/><path d="M 402.5 402.5 A 402.5 402.5 0 0 0 805 0 L 402.5 0" fill="#DEBA9D"/><rect x="0" y="402.5" width="402.5" height="402.5" fill="#9E7777"/><path d="M 0 402.5 A 402.5 402.5 0 0 1  402.5 805 L 0 402.5 A 402.5 402.5 0 0 0 402.5 805" fill="#6F4C5B"/><rect x="402.5" y="402.5" width="402.5" height="402.5" fill="#6F4C5B"/><path d="M 402.5 402.5 A 402.5 402.5 0 0 1  805 805 L 402.5 402.5 A 402.5 402.5 0 0 0 805 805" fill="#DEBA9D"/></g></svg>