<?xml version="1.0" standalone="no"?><svg xmlns:xlink="http://www.w3.org/1999/xlink" xmlns="http://www.w3.org/2000/svg" viewBox="0 0 1000 1250" preserveAspectRatio="xMaxYMax slice"><g transform="scale(1.8050541516245486)"><rect x="0" y="0" width="554" height="692.5" fill="#ffffff"/><rect x="0" y="0" width="138.5" height="138.5" fill="#515E63"/><path d="M 0 138.5 A 138.5 138.5 0 0 1  138.5 0 L 0 138.5 A 138.5 138.5 0 0 0 138.5 0" fill="#F1ECC3"/><rect x="138.5" y="0" width="138.5" height="138.5" fill="#515E63"/><path d="M 138.5 138.5 A 138.5 138.5 0 0 1  277 0 L 138.5 138.5 A 138.5 138.5 0 0 0 277 0" fill="#515E63"/><rect x="415.5" y="0" width="138.5" height="138.5" fill="#515E63"/><path d="M 415.5 0 A 138.5 138.5 0 0 1  554 138.5 L 415.5 0 A 138.5 138.5 0 0 0 554 138.5" fill="#C9D8B6"/><rect x="138.5" y="138.5" width="138.5" height="138.5" fill="#57837B"/><path d="M 138.5 138.5 A 138.5 138.5 0 0 1  277 277 L 138.5 138.5 A 138.5 138.5 0 0 0 277 277" fill="#515E63"/><rect x="277" y="138.5" width="138.5" height="138.5" fill="#C9D8B6"/><path d="M 277 277 A 138.5 138.5 0 0 1  415.5 138.5 L 277 277 A 138.5 138.5 0 0 0 415.5 138.5" fill="#57837B"/><rect x="415.5" y="138.5" width="138.5" height="138.5" fill="#57837B"/><path d="M 415.5 138.5 A 138.5 138.5 0 0 1  554 277 L 415.5 138.5 A 138.5 138.5 0 0 0 554 277" fill="#C9D8B6"/><rect x="0" y="277" width="138.5" height="138.5" fill="#F1ECC3"/><path d="M 0 415.5 A 138.5 138.5 0 0 1  138.5 277 L 0 415.5 A 138.5 138.5 0 0 0 138.5 277" fill="#F1ECC3"/><rect x="138.5" y="277" width="138.5" height="138.5" fill="#C9D8B6"/><path d="M 138.5 415.5 A 138.5 138.5 0 0 1  277 277 L 138.5 415.5 A 138.5 138.5 0 0 0 277 277" fill="#515E63"/><rect x="277" y="277" width="138.5" height="138.5" fill="#C9D8B6"/><path d="M 277 277 A 138.5 138.5 0 0 1  415.5 415.5 L 277 277 A 138.5 138.5 0 0 0 415.5 415.5" fill="#F1ECC3"/><rect x="415.5" y="277" width="138.5" height="138.5" fill="#C9D8B6"/><path d="M 415.5 415.5 A 138.5 138.5 0 0 1  554 277 L 415.5 415.5 A 138.5 138.5 0 0 0 554 277" fill="#515E63"/><rect x="0" y="415.5" width="138.5" height="138.5" fill="#515E63"/><path d="M 0 554 A 138.5 138.5 0 0 1  138.5 415.5 L 0 554 A 138.5 138.5 0 0 0 138.5 415.5" fill="#57837B"/><rect x="138.5" y="415.5" width="138.5" height="138.5" fill="#57837B"/><path d="M 138.5 554 A 138.5 138.5 0 0 1  277 415.5 L 138.5 554 A 138.5 138.5 0 0 0 277 415.5" fill="#F1ECC3"/><rect x="415.5" y="415.5" width="138.5" height="138.5" fill="#F1ECC3"/><path d="M 415.5 415.5 A 138.5 138.5 0 0 1  554 554 L 415.5 415.5 A 138.5 138.5 0 0 0 554 554" fill="#F1ECC3"/><rect x="0" y="554" width="138.5" height="138.5" fill="#C9D8B6"/><path d="M 0 554 A 138.5 138.5 0 0 1  138.5 692.5 L 0 554 A 138.5 138.5 0 0 0 138.5 692.5" fill="#C9D8B6"/><rect x="138.5" y="554" width="138.5" height="138.5" fill="#57837B"/><path d="M 138.5 692.5 A 138.5 138.5 0 0 1  277 554 L 138.5 692.5 A 138.5 138.5 0 0 0 277 554" fill="#515E63"/><rect x="277" y="554" width="138.5" height="138.5" fill="#515E63"/><path d="M 277 554 A 138.5 138.5 0 0 1  415.5 692.5 L 277 554 A 138.5 138.5 0 0 0 415.5 692.5" fill="#F1ECC3"/></g></svg>