<?xml version="1.0" standalone="no"?><svg xmlns:xlink="http://www.w3.org/1999/xlink" xmlns="http://www.w3.org/2000/svg" viewBox="0 0 500 500.00000000000006" preserveAspectRatio="xMaxYMax slice"><g transform="scale(0.6527415143603134)"><rect x="0" y="0" width="766" height="766" fill="#ffffff"/><rect x="0" y="0" width="383" height="383" fill="#F1ECC3"/><path d="M 0 383 A 383 383 0 0 1  383 0 L 0 383 A 383 383 0 0 0 383 0" fill="#515E63"/><rect x="383" y="0" width="383" height="383" fill="#C9D8B6"/><rect x="383" y="0" width="383" height="383" fill="#515E63"/><rect x="0" y="383" width="383" height="383" fill="#ffffff"/><rect x="0" y="383" width="191.5" height="191.5" fill="#515E63"/><path d="M 0 383 A 191.5 191.5 0 0 1  191.5 574.5 L 0 383 A 191.5 191.5 0 0 0 191.5 574.5" fill="#F1ECC3"/><rect x="191.5" y="383" width="191.5" height="191.5" fill="#F1ECC3"/><path d="M 191.5 383 A 191.5 191.5 0 0 1  383 574.5 L 191.5 383 A 191.5 191.5 0 0 0 383 574.5" fill="#515E63"/><rect x="0" y="574.5" width="191.5" height="191.5" fill="#C9D8B6"/><rect x="0" y="574.5" width="191.5" height="191.5" fill="#515E63"/><rect x="191.5" y="574.5" width="191.5" height="191.5" fill="#C9D8B6"/><path d="M 191.5 766 A 191.5 191.5 0 0 0 383 574.5 L 191.5 574.5" fill="#C9D8B6"/><rect x="383" y="383" width="383" height="383" fill="#F1ECC3"/><path d="M 383 766 A 383 383 0 0 0 766 383 L 383 383" fill="#C9D8B6"/></g></svg>